<svg xmlns="http://www.w3.org/2000/svg" xmlns:xlink="http://www.w3.org/1999/xlink" width="24" height="24" viewBox="0 0 24 24"><defs><style>.a,.d{fill:#9898ae;}.a{stroke:#707070;}.b{clip-path:url(#a);}.c{fill:none;}</style><clipPath id="a"><rect class="a" width="24" height="24" transform="translate(253 8)"/></clipPath></defs><g class="b" transform="translate(-253 -8)"><g transform="translate(253 8)"><path class="c" d="M0,0H24V24H0Z"/><path class="d" d="M5,10a2,2,0,1,0,2,2A2.006,2.006,0,0,0,5,10Zm14,0a2,2,0,1,0,2,2A2.006,2.006,0,0,0,19,10Zm-7,0a2,2,0,1,0,2,2A2.006,2.006,0,0,0,12,10Z"/></g></g></svg>